<svg width="360" height="60" viewBox="0 0 360 60" fill="none" xmlns="http://www.w3.org/2000/svg">
<g clip-path="url(#clip0_4_6698)">
<path fill-rule="evenodd" clip-rule="evenodd" d="M31.6264 36.1851C30.6315 37.2097 29.655 38.2572 28.5912 39.2109C27.3321 40.3384 25.3263 40.2424 24.1108 39.0325C21.7282 36.6608 19.3524 34.28 16.9904 31.8877C15.6417 30.5223 15.6853 28.4159 17.0387 27.0619C19.3983 24.7039 21.7465 22.3345 24.1039 19.9765C25.3722 18.7095 27.4355 18.666 28.7268 19.9011C29.7125 20.8456 30.6568 21.8314 31.6195 22.7988C31.3898 23.1396 31.075 23.4026 30.7901 23.6885C29.7079 24.784 28.6142 25.8681 27.5182 26.9499C27.123 27.341 26.7876 27.7686 26.5969 28.2924C26.1948 29.3948 26.3005 30.4605 26.9829 31.4142C27.4861 32.1187 28.1616 32.6813 28.7635 33.3034C29.7033 34.2777 30.6706 35.2245 31.6264 36.1828V36.1851Z" fill="white"/>
<path fill-rule="evenodd" clip-rule="evenodd" d="M31.6587 22.801C32.2722 22.2955 32.7983 21.7009 33.3589 21.1429C33.8162 20.6854 34.2642 20.2189 34.749 19.7912C35.4935 19.1325 36.401 18.9267 37.3569 19.0799C38.0507 19.1897 38.6826 19.487 39.2019 20.0153C40.9251 21.7672 42.6736 23.4917 44.4037 25.2344C45.1413 25.9778 45.9386 26.6707 46.5842 27.4964C47.4941 28.6582 47.517 30.2615 46.6187 31.453C46.0259 32.2421 45.2722 32.8916 44.5784 33.5892C43.1102 35.0643 41.6397 36.5372 40.16 38.0009C39.6545 38.4995 39.2042 39.0622 38.5999 39.4555C37.9588 39.8741 37.2443 40.0227 36.4837 39.945C35.822 39.8786 35.2384 39.6065 34.7169 39.2177C34.4503 39.0187 34.2435 38.7443 34.0069 38.5041C33.2533 37.7379 32.4996 36.9718 31.746 36.2079C31.7276 36.1896 31.6955 36.1873 31.6702 36.1781C31.6978 36.1438 31.7253 36.105 31.7552 36.0729C33.1591 34.6572 34.5675 33.2438 35.9714 31.8281C37.2259 30.5634 37.2213 28.4089 35.9622 27.1487C34.8363 26.0212 33.7082 24.8982 32.5846 23.7707C32.2699 23.4551 31.9689 23.1258 31.661 22.801H31.6587Z" fill="white"/>
<path fill-rule="evenodd" clip-rule="evenodd" d="M31.6586 22.8011C31.9664 23.1236 32.2674 23.4552 32.5822 23.7709C33.7058 24.9007 34.8362 26.0236 35.9598 27.1489C37.2189 28.4091 37.2235 30.5635 35.9689 31.8282C34.5651 33.2439 33.1589 34.6597 31.7528 36.0731C31.7206 36.1051 31.6953 36.1417 31.6677 36.1783C31.654 36.1829 31.6379 36.1851 31.6241 36.1829C30.6683 35.2246 29.701 34.2777 28.7612 33.3034C28.1592 32.6813 27.4837 32.1164 26.9806 31.4143C26.2981 30.4606 26.1925 29.3971 26.5945 28.2924C26.7853 27.7687 27.1207 27.341 27.5159 26.9499C28.6119 25.8681 29.7056 24.784 30.7877 23.6885C31.0727 23.4003 31.3874 23.1373 31.6172 22.7988C31.631 22.7943 31.6425 22.7943 31.6563 22.7988L31.6586 22.8011Z" fill="white" fill-opacity="0.6"/>
<path fill-rule="evenodd" clip-rule="evenodd" d="M74.2454 32.958C74.2454 34.3943 74.2408 35.7574 74.25 37.1205C74.25 37.3263 74.2109 37.3995 73.9858 37.3926C73.4068 37.3744 72.8278 37.3812 72.2488 37.3904C72.0948 37.3904 72.0259 37.3744 72.0259 37.1891C72.0328 33.1478 72.0305 29.1043 72.0259 25.063C72.0259 24.9097 72.042 24.832 72.2304 24.8366C72.791 24.8503 73.3516 24.8457 73.9122 24.8366C74.0685 24.8366 74.1213 24.8846 74.1167 25.0401C74.1075 25.3832 74.1144 25.7262 74.1144 26.1425C74.4292 25.7537 74.7279 25.4495 75.0863 25.2139C75.9135 24.6696 76.828 24.4912 77.8068 24.5735C80.3043 24.7794 81.6645 26.7714 81.9149 28.8481C82.085 30.2798 81.8024 31.5972 80.8994 32.7316C79.8631 34.0329 78.48 34.5658 76.8234 34.3897C75.7871 34.2799 74.9255 33.8431 74.2454 32.9603V32.958ZM76.952 32.3405C78.5167 32.3405 79.7598 31.1032 79.746 29.5068C79.7322 27.9584 78.6592 26.6456 76.9359 26.6342C75.3621 26.6251 74.1305 27.9081 74.1374 29.5251C74.1443 31.1009 75.385 32.3405 76.9543 32.3382L76.952 32.3405Z" fill="white"/>
<path fill-rule="evenodd" clip-rule="evenodd" d="M126.239 30.2388C125.09 30.2388 123.941 30.2456 122.795 30.2319C122.549 30.2296 122.521 30.3142 122.563 30.5178C122.792 31.6064 123.771 32.4367 124.92 32.5053C125.933 32.5647 126.781 32.272 127.342 31.3754C127.401 31.2817 127.466 31.2588 127.565 31.2611C128.208 31.2634 128.851 31.2657 129.495 31.2611C129.669 31.2611 129.704 31.3023 129.623 31.4646C128.879 32.9993 127.725 34.0536 126.011 34.3555C123.767 34.7489 121.565 33.6054 120.656 31.38C119.697 29.0381 120.633 26.3622 122.859 25.1431C125.591 23.6451 129.155 25.0677 129.892 28.3634C130.014 28.9054 130 29.4497 130 29.9986C130 30.193 129.931 30.2456 129.74 30.2456C128.573 30.2388 127.406 30.2411 126.241 30.2411L126.239 30.2388ZM127.762 28.5052C127.751 28.2925 127.684 28.1072 127.599 27.9265C127.05 26.7647 125.692 26.1883 124.373 26.5611C123.489 26.8104 122.898 27.3685 122.615 28.2421C122.556 28.4251 122.576 28.528 122.829 28.5257C124.398 28.512 125.968 28.5189 127.539 28.5189C127.611 28.5189 127.684 28.512 127.762 28.5074V28.5052Z" fill="white"/>
<path fill-rule="evenodd" clip-rule="evenodd" d="M89.0123 30.2364C87.8635 30.2364 86.7147 30.2432 85.5659 30.2295C85.343 30.2295 85.2971 30.2958 85.3384 30.4948C85.5751 31.62 86.5745 32.4525 87.7349 32.5051C88.7389 32.5486 89.5753 32.2581 90.1267 31.3662C90.175 31.2861 90.2301 31.2564 90.3243 31.2564C90.9768 31.261 91.6294 31.261 92.2819 31.2564C92.4267 31.2564 92.4887 31.2747 92.4083 31.4394C91.6294 33.0563 90.4185 34.1152 88.5919 34.3714C86.0139 34.7328 83.6083 33.0129 83.1442 30.3461C82.6915 27.748 84.3481 25.0721 87.1444 24.6147C90.044 24.1413 92.3462 26.1425 92.7276 28.6308C92.7943 29.0699 92.769 29.5045 92.7828 29.9436C92.7897 30.1677 92.7253 30.2409 92.4887 30.2386C91.3307 30.2272 90.1727 30.2341 89.0146 30.2341L89.0123 30.2364ZM87.96 28.5142C88.6746 28.5142 89.3915 28.5142 90.106 28.5142C90.4599 28.5142 90.5656 28.3487 90.4231 28.0179C90.4093 27.9836 90.3955 27.9516 90.3794 27.9172C89.8165 26.7577 88.4816 26.1836 87.1788 26.5496C86.3103 26.792 85.706 27.3249 85.4234 28.1894C85.3177 28.5119 85.3246 28.5142 85.6486 28.5142C86.4183 28.5142 87.1903 28.5142 87.96 28.5142Z" fill="white"/>
<path fill-rule="evenodd" clip-rule="evenodd" d="M54.7614 25.8567C55.6138 24.6971 56.7512 24.4684 58.0333 24.5873C59.8415 24.7566 60.6778 25.9161 60.9536 27.4576C61.0478 27.9905 61.0707 28.528 61.0707 29.0677C61.0661 30.6779 61.0638 32.288 61.073 33.8981C61.073 34.0993 61.0294 34.1611 60.8203 34.1542C60.2781 34.1382 59.7358 34.1336 59.1936 34.1542C58.927 34.1657 58.842 34.1108 58.8443 33.8226C58.8627 32.2491 58.8558 30.6756 58.8512 29.1021C58.8512 28.7201 58.8053 28.3405 58.6996 27.9677C58.417 26.9751 57.6036 26.6366 56.7351 26.6549C55.5035 26.68 54.7913 27.5537 54.7798 28.7338C54.7637 30.4354 54.7637 32.137 54.7683 33.8386C54.7683 34.0879 54.7109 34.1657 54.4512 34.1542C53.8906 34.1313 53.33 34.1405 52.7693 34.1519C52.5878 34.1542 52.5166 34.1222 52.5166 33.9164C52.5235 29.8911 52.5212 25.8658 52.5166 21.8406C52.5166 21.6736 52.5557 21.621 52.728 21.6233C53.3254 21.6347 53.9228 21.6347 54.5201 21.6233C54.7154 21.6187 54.766 21.6782 54.766 21.868C54.7591 23.0756 54.7614 24.2832 54.7614 25.4907C54.7614 25.5914 54.7614 25.6897 54.7614 25.8567Z" fill="white"/>
<path fill-rule="evenodd" clip-rule="evenodd" d="M102.596 25.8818C103.439 24.7062 104.583 24.4592 105.877 24.5896C106.509 24.6536 107.092 24.8252 107.6 25.2185C108.264 25.7331 108.586 26.449 108.758 27.238C108.889 27.8372 108.928 28.4479 108.926 29.0608C108.924 30.6618 108.921 32.2628 108.931 33.8614C108.931 34.0764 108.894 34.1633 108.653 34.1542C108.083 34.1336 107.513 34.1382 106.943 34.1542C106.732 34.161 106.681 34.0947 106.683 33.8934C106.69 32.3016 106.686 30.7098 106.688 29.1203C106.688 28.6606 106.658 28.2055 106.486 27.7778C106.114 26.8584 105.344 26.6388 104.602 26.6617C103.198 26.7051 102.61 27.6451 102.601 29.054C102.591 30.6641 102.596 32.2742 102.601 33.882C102.601 34.081 102.566 34.1656 102.336 34.1587C101.757 34.1382 101.178 34.1473 100.599 34.1542C100.445 34.1542 100.376 34.1404 100.376 33.9552C100.383 29.9139 100.381 25.8704 100.376 21.8291C100.376 21.6781 100.413 21.6278 100.574 21.6301C101.181 21.6393 101.787 21.6415 102.394 21.6301C102.575 21.6255 102.601 21.6919 102.601 21.852C102.594 23.1762 102.598 24.5004 102.598 25.8887L102.596 25.8818Z" fill="white"/>
<path fill-rule="evenodd" clip-rule="evenodd" d="M66.346 30.966C66.5826 30.305 66.8032 29.6944 67.0238 29.0815C67.5063 27.7435 67.9888 26.4033 68.4667 25.0631C68.5264 24.8938 68.6069 24.8275 68.7999 24.8321C69.4248 24.8481 70.0498 24.8458 70.6747 24.8321C70.9068 24.8275 70.9252 24.8801 70.8448 25.0882C69.4524 28.6606 68.0669 32.2353 66.6814 35.8101C66.5022 36.2743 66.3161 36.7363 66.1415 37.2029C66.0909 37.3378 66.022 37.395 65.8658 37.3927C65.2132 37.3813 64.5607 37.3836 63.9082 37.3904C63.7313 37.3904 63.6853 37.3698 63.7657 37.1823C64.2275 36.1074 64.6756 35.0279 65.1351 33.9507C65.188 33.8272 65.1903 33.7242 65.1397 33.5962C64.0276 30.7625 62.9248 27.9265 61.8081 25.0951C61.7162 24.8641 61.7622 24.8321 61.9896 24.8366C62.5962 24.8504 63.2028 24.8526 63.8094 24.8366C64.0299 24.8298 64.1264 24.8961 64.2 25.1019C64.8778 26.9796 65.5648 28.8505 66.2518 30.7259C66.2747 30.7899 66.3023 30.8539 66.3483 30.9706L66.346 30.966Z" fill="white"/>
<path fill-rule="evenodd" clip-rule="evenodd" d="M96.505 25.9046C96.9484 25.2208 97.5412 24.8023 98.3247 24.6307C99.0622 24.4706 99.0599 24.4592 99.0599 25.1865C99.0599 25.6622 99.053 26.1379 99.0645 26.6136C99.0668 26.7669 99.0255 26.8149 98.8669 26.8126C98.5085 26.808 98.1547 26.8583 97.8192 26.9887C96.9875 27.3158 96.6566 27.995 96.6428 28.8207C96.6152 30.4925 96.629 32.1667 96.6382 33.8408C96.6382 34.0832 96.5877 34.1679 96.328 34.1587C95.7605 34.1358 95.1884 34.1427 94.6209 34.1587C94.4325 34.1633 94.3911 34.1015 94.3911 33.9254C94.3957 30.982 94.3957 28.0385 94.3911 25.0927C94.3911 24.912 94.4256 24.832 94.6324 24.8366C95.1838 24.8503 95.7352 24.848 96.2844 24.8366C96.4728 24.832 96.521 24.9006 96.5118 25.0744C96.4981 25.3512 96.5073 25.6279 96.5073 25.9069L96.505 25.9046Z" fill="white"/>
<path fill-rule="evenodd" clip-rule="evenodd" d="M117.528 25.8911C117.972 25.2187 118.562 24.7979 119.346 24.6309C120.07 24.4754 120.067 24.464 120.067 25.2004C120.067 25.6578 120.058 26.1152 120.072 26.5726C120.079 26.7602 120.033 26.8128 119.835 26.8174C119.327 26.8242 118.833 26.9088 118.411 27.2176C117.843 27.6316 117.655 28.2354 117.648 28.8917C117.629 30.5476 117.634 32.2012 117.643 33.857C117.643 34.0903 117.6 34.1703 117.347 34.1589C116.77 34.136 116.189 34.1452 115.612 34.1543C115.437 34.1566 115.394 34.0994 115.394 33.9371C115.398 30.9753 115.398 28.0112 115.394 25.0494C115.394 24.8733 115.456 24.8367 115.619 24.839C116.18 24.8482 116.74 24.8482 117.301 24.839C117.48 24.8367 117.544 24.8871 117.533 25.0723C117.517 25.3445 117.528 25.6212 117.528 25.8934V25.8911Z" fill="white"/>
<path fill-rule="evenodd" clip-rule="evenodd" d="M113.282 29.5068C113.282 30.9705 113.278 32.4343 113.287 33.8957C113.287 34.1016 113.234 34.1587 113.027 34.1542C112.448 34.1404 111.869 34.1427 111.29 34.1542C111.106 34.1564 111.035 34.1199 111.035 33.9163C111.042 30.9705 111.042 28.0271 111.035 25.0813C111.035 24.8915 111.088 24.8297 111.283 24.8343C111.853 24.8457 112.423 24.8503 112.993 24.8343C113.218 24.8274 113.289 24.8823 113.287 25.1179C113.275 26.5816 113.282 28.0454 113.282 29.5068Z" fill="white"/>
<path fill-rule="evenodd" clip-rule="evenodd" d="M111.058 23.0618C111.067 22.8491 111.125 22.689 111.251 22.5586C111.513 22.2911 111.782 22.0303 112.037 21.7559C112.14 21.6461 112.2 21.6621 112.297 21.7627C112.542 22.0212 112.804 22.2613 113.05 22.5198C113.363 22.8468 113.367 23.2402 113.062 23.5695C112.814 23.8371 112.542 24.0841 112.29 24.3471C112.198 24.4409 112.138 24.4432 112.046 24.3471C111.782 24.0704 111.509 23.8005 111.24 23.5284C111.102 23.3889 111.065 23.215 111.056 23.0618H111.058Z" fill="#DFF0FF"/>
</g>
<path d="M325 5.97437H339" stroke="white" stroke-width="1.5" stroke-linecap="round" stroke-linejoin="round"/>
<path d="M325 8.96143H339" stroke="white" stroke-width="1.5" stroke-linecap="round" stroke-linejoin="round"/>
<path d="M325 7.46802H339" stroke="white" stroke-width="1.5" stroke-linecap="round" stroke-linejoin="round"/>
<defs>
<clipPath id="clip0_4_6698">
<rect width="114" height="21" fill="white" transform="translate(16 19)"/>
</clipPath>
</defs>
</svg>
